<?xml version="1.0" encoding="UTF-8"?>
<!DOCTYPE svg PUBLIC "-//W3C//DTD SVG 1.1//EN" "http://www.w3.org/Graphics/SVG/1.1/DTD/svg11.dtd">
<svg xmlns="http://www.w3.org/2000/svg" version="1.1" width="134px" height="134px" style="shape-rendering:geometricPrecision; text-rendering:geometricPrecision; image-rendering:optimizeQuality; fill-rule:evenodd; clip-rule:evenodd" xmlns:xlink="http://www.w3.org/1999/xlink">
<g><path style="opacity:1" fill="#fbf7fd" d="M 74.5,23.5 C 85.7984,34.2979 96.9651,45.2979 108,56.5C 108.667,57.5 108.667,58.5 108,59.5C 102.934,64.0051 98.1012,68.6718 93.5,73.5C 93.1667,74.5 92.5,75.1667 91.5,75.5C 84.5,81.8333 77.8333,88.5 71.5,95.5C 68.853,97.8109 66.1864,100.144 63.5,102.5C 59.4799,98.8114 55.4799,95.1447 51.5,91.5C 45.1667,84.5 38.5,77.8333 31.5,71.5C 29.5,68.8333 27.1667,66.5 24.5,64.5C 22.8729,62.3702 21.0396,60.3702 19,58.5C 18.3333,57.8333 18.3333,57.1667 19,56.5C 30.7015,44.6313 42.5349,32.9646 54.5,21.5C 58.0078,20.3366 61.0078,18.3366 63.5,15.5C 66.6452,17.4782 69.3119,19.9782 71.5,23C 72.448,23.4828 73.448,23.6495 74.5,23.5 Z"/></g>
<g><path style="opacity:0.033" fill="#f9f2fd" d="M 58.5,117.5 C 59.1667,117.5 59.8333,117.5 60.5,117.5C 61.6591,119.377 63.3258,119.877 65.5,119C 66.9984,116.336 68.9984,114.17 71.5,112.5C 73.8333,110.167 76.1667,107.833 78.5,105.5C 79.8606,103.473 81.5273,101.806 83.5,100.5C 87.7792,96.8875 91.7792,92.8875 95.5,88.5C 95.5,87.8333 95.8333,87.5 96.5,87.5C 100.804,82.3643 105.637,77.6976 111,73.5C 111.506,69.8111 110.006,67.1444 106.5,65.5C 107.373,63.1137 108.873,61.1137 111,59.5C 111.667,58.1667 111.667,56.8333 111,55.5C 95.2925,39.6254 79.4592,23.9588 63.5,8.5C 47.2605,23.9071 31.4272,39.9071 16,56.5C 15.3333,57.5 15.3333,58.5 16,59.5C 17.6851,61.0175 19.1851,62.6841 20.5,64.5C 20.1373,65.1835 19.8039,65.8501 19.5,66.5C 18.1667,67.1667 17.1667,68.1667 16.5,69.5C 16.1667,69.5 15.8333,69.5 15.5,69.5C 14.8333,69.8333 14.1667,70.1667 13.5,70.5C 14.7057,68.5168 16.039,66.5168 17.5,64.5C 16.5197,63.0186 15.353,61.6853 14,60.5C 13.3333,58.8333 13.3333,57.1667 14,55.5C 30.0721,38.9259 46.5721,22.9259 63.5,7.5C 65.9435,8.76689 68.2769,10.2669 70.5,12C 83.7749,25.2749 96.9415,38.4415 110,51.5C 111.633,53.4529 112.799,55.6196 113.5,58C 112.822,60.5239 111.488,62.6905 109.5,64.5C 110.48,65.9814 111.647,67.3147 113,68.5C 113.808,70.5787 113.641,72.5787 112.5,74.5C 98.2896,89.054 83.9563,103.554 69.5,118C 65.4548,122.786 61.7881,122.619 58.5,117.5 Z"/></g>
<g><path style="opacity:0.949" fill="#967bc0" d="M 106.5,65.5 C 105.577,64.6971 104.577,64.5304 103.5,65C 101.205,69.1341 97.8715,71.9674 93.5,73.5C 98.1012,68.6718 102.934,64.0051 108,59.5C 108.667,58.5 108.667,57.5 108,56.5C 96.9651,45.2979 85.7984,34.2979 74.5,23.5C 71.1877,19.521 67.521,15.8544 63.5,12.5C 60.1456,15.1877 57.1456,18.1877 54.5,21.5C 42.5349,32.9646 30.7015,44.6313 19,56.5C 18.3333,57.1667 18.3333,57.8333 19,58.5C 21.0396,60.3702 22.8729,62.3702 24.5,64.5C 22.6776,64.8308 21.0109,65.4975 19.5,66.5C 19.8039,65.8501 20.1373,65.1835 20.5,64.5C 19.1851,62.6841 17.6851,61.0175 16,59.5C 15.3333,58.5 15.3333,57.5 16,56.5C 31.4272,39.9071 47.2605,23.9071 63.5,8.5C 79.4592,23.9588 95.2925,39.6254 111,55.5C 111.667,56.8333 111.667,58.1667 111,59.5C 108.873,61.1137 107.373,63.1137 106.5,65.5 Z"/></g>
<g><path style="opacity:1" fill="#f6e8fd" d="M 74.5,23.5 C 73.448,23.6495 72.448,23.4828 71.5,23C 69.3119,19.9782 66.6452,17.4782 63.5,15.5C 61.0078,18.3366 58.0078,20.3366 54.5,21.5C 57.1456,18.1877 60.1456,15.1877 63.5,12.5C 67.521,15.8544 71.1877,19.521 74.5,23.5 Z"/></g>
<g><path style="opacity:1" fill="#9876c3" d="M 45.5,41.5 C 41.8333,47.1667 37.1667,51.8333 31.5,55.5C 35.8333,50.5 40.5,45.8333 45.5,41.5 Z"/></g>
<g><path style="opacity:1" fill="#9173ba" d="M 88.5,48.5 C 90.8333,50.1667 92.8333,52.1667 94.5,54.5C 91.5,53.5 89.5,51.5 88.5,48.5 Z"/></g>
<g><path style="opacity:1" fill="#9c81c4" d="M 31.5,55.5 C 31.4003,58.1085 32.0669,60.4418 33.5,62.5C 29.4714,60.7831 28.8048,58.4498 31.5,55.5 Z"/></g>
<g><path style="opacity:1" fill="#9064cb" d="M 88.5,48.5 C 89.5,51.5 91.5,53.5 94.5,54.5C 95.038,56.1172 95.3713,57.7839 95.5,59.5C 92.5,59.1667 91.1667,60.5 91.5,63.5C 90.5,63.5 89.5,63.5 88.5,63.5C 88.5,64.8333 88.5,66.1667 88.5,67.5C 86.8333,68.5 85.5,69.8333 84.5,71.5C 83.1667,72.1667 82.1667,73.1667 81.5,74.5C 78.5123,74.3286 76.5123,75.6619 75.5,78.5C 74.8027,76.6155 73.8027,76.2822 72.5,77.5C 71.5258,79.7427 71.1924,82.076 71.5,84.5C 70.8333,84.8333 70.1667,85.1667 69.5,85.5C 68.1266,85.3433 66.7932,85.51 65.5,86C 65.9574,86.414 66.2907,86.914 66.5,87.5C 65.635,88.5827 64.635,88.7494 63.5,88C 61.2117,87.0536 59.045,85.8869 57,84.5C 56.51,83.2068 56.3433,81.8734 56.5,80.5C 55.1667,80.5 53.8333,80.5 52.5,80.5C 52.5,79.5 52.5,78.5 52.5,77.5C 50.1791,76.5233 47.8458,75.5233 45.5,74.5C 41.1667,70.8333 37.1667,66.8333 33.5,62.5C 32.0669,60.4418 31.4003,58.1085 31.5,55.5C 37.1667,51.8333 41.8333,47.1667 45.5,41.5C 51.1457,35.1877 57.1457,29.1877 63.5,23.5C 72.2147,31.5481 80.5481,39.8814 88.5,48.5 Z"/></g>
<g><path style="opacity:1" fill="#fbf7fc" d="M 64.5,41.5 C 68.1667,45.8333 72.1667,49.8333 76.5,53.5C 77.4756,54.8149 78.4756,56.1482 79.5,57.5C 78.4688,58.7003 77.6355,60.0337 77,61.5C 72.3565,65.8648 67.5232,69.8648 62.5,73.5C 57.8698,68.3687 53.0365,63.3687 48,58.5C 48.0579,56.5646 48.8912,54.8979 50.5,53.5C 54.8918,49.1028 59.5584,45.1028 64.5,41.5 Z"/></g>
<g><path style="opacity:1" fill="#9266c9" d="M 65.5,53.5 C 66.7142,54.6256 67.7142,55.9589 68.5,57.5C 68.5466,59.0377 67.8799,60.0377 66.5,60.5C 61.0917,61.4326 59.425,59.4326 61.5,54.5C 62.7079,53.7659 64.0413,53.4326 65.5,53.5 Z"/></g>
<g><path style="opacity:1" fill="#baa5e2" d="M 65.5,53.5 C 64.0413,53.4326 62.7079,53.7659 61.5,54.5C 62.244,51.1155 63.5774,50.7822 65.5,53.5 Z"/></g>
<g><path style="opacity:1" fill="#926fc3" d="M 64.5,41.5 C 59.5584,45.1028 54.8918,49.1028 50.5,53.5C 49.6617,48.6578 51.6617,45.9912 56.5,45.5C 58.1256,44.0095 59.7923,42.5095 61.5,41C 62.7494,40.2599 63.7494,40.4265 64.5,41.5 Z"/></g>
<g><path style="opacity:1" fill="#926fc6" d="M 64.5,41.5 C 66.7457,42.4552 69.079,43.1218 71.5,43.5C 71.3433,44.8734 71.51,46.2068 72,47.5C 72.7412,48.6405 73.5745,48.6405 74.5,47.5C 75.7681,49.3043 76.4348,51.3043 76.5,53.5C 72.1667,49.8333 68.1667,45.8333 64.5,41.5 Z"/></g>
<g><path style="opacity:1" fill="#9676c4" d="M 94.5,54.5 C 96.9137,55.4056 97.747,57.0722 97,59.5C 94.295,62.0362 91.795,64.7029 89.5,67.5C 89.1667,67.5 88.8333,67.5 88.5,67.5C 88.5,66.1667 88.5,64.8333 88.5,63.5C 89.5,63.5 90.5,63.5 91.5,63.5C 91.1667,60.5 92.5,59.1667 95.5,59.5C 95.3713,57.7839 95.038,56.1172 94.5,54.5 Z"/></g>
<g><path style="opacity:1" fill="#9877c6" d="M 50.5,53.5 C 48.8912,54.8979 48.0579,56.5646 48,58.5C 53.0365,63.3687 57.8698,68.3687 62.5,73.5C 59.6596,72.5766 57.3263,70.9099 55.5,68.5C 54.2638,67.7542 52.9305,67.4208 51.5,67.5C 51.6577,63.3039 49.6577,61.1372 45.5,61C 46.435,58.6194 46.7683,56.1194 46.5,53.5C 47.8333,53.5 49.1667,53.5 50.5,53.5 Z"/></g>
<g><path style="opacity:1" fill="#9274be" d="M 61.5,54.5 C 59.425,59.4326 61.0917,61.4326 66.5,60.5C 65.8549,61.8118 64.8549,62.8118 63.5,63.5C 60.4402,61.9812 58.9402,59.6478 59,56.5C 59.7083,55.6195 60.5416,54.9528 61.5,54.5 Z"/></g>
<g><path style="opacity:1" fill="#9977c9" d="M 76.5,53.5 C 78.8444,53.5062 80.1777,54.6729 80.5,57C 79.5767,59.6779 78.2434,62.1779 76.5,64.5C 78.6603,66.0935 78.827,67.7601 77,69.5C 75.5557,67.8446 73.7224,67.178 71.5,67.5C 71.8333,70.5 70.5,71.8333 67.5,71.5C 67.5,72.5 67.5,73.5 67.5,74.5C 65.5853,74.7845 63.9187,74.4511 62.5,73.5C 67.5232,69.8648 72.3565,65.8648 77,61.5C 77.6355,60.0337 78.4688,58.7003 79.5,57.5C 78.4756,56.1482 77.4756,54.8149 76.5,53.5 Z"/></g>
<g><path style="opacity:0.831" fill="#a78ac9" d="M 15.5,69.5 C 15.8333,69.5 16.1667,69.5 16.5,69.5C 16.7036,71.6854 17.3702,73.6854 18.5,75.5C 16.0246,74.3126 15.0246,72.3126 15.5,69.5 Z"/></g>
<g><path style="opacity:1" fill="#9470c8" d="M 106.5,65.5 C 110.006,67.1444 111.506,69.8111 111,73.5C 105.637,77.6976 100.804,82.3643 96.5,87.5C 97.8333,84.5 99.1667,81.5 100.5,78.5C 101.978,78.762 103.311,78.4287 104.5,77.5C 103.674,76.549 103.508,75.549 104,74.5C 105.011,75.3366 106.178,75.67 107.5,75.5C 107.658,72.0977 107.324,68.7644 106.5,65.5 Z"/></g>
<g><path style="opacity:1" fill="#9064cb" d="M 24.5,64.5 C 25.1667,68.5 27.5,70.8333 31.5,71.5C 32.9471,78.2855 36.9471,82.9521 43.5,85.5C 45.321,86.7277 46.321,88.3944 46.5,90.5C 48.2161,90.6287 49.8828,90.962 51.5,91.5C 55.4799,95.1447 59.4799,98.8114 63.5,102.5C 66.1864,100.144 68.853,97.8109 71.5,95.5C 74.1318,93.8866 76.7984,92.22 79.5,90.5C 82.9094,86.1868 86.7427,82.1868 91,78.5C 91.4828,77.552 91.6495,76.552 91.5,75.5C 92.5,75.1667 93.1667,74.5 93.5,73.5C 97.8715,71.9674 101.205,69.1341 103.5,65C 104.577,64.5304 105.577,64.6971 106.5,65.5C 107.324,68.7644 107.658,72.0977 107.5,75.5C 106.178,75.67 105.011,75.3366 104,74.5C 103.508,75.549 103.674,76.549 104.5,77.5C 103.311,78.4287 101.978,78.762 100.5,78.5C 99.1667,81.5 97.8333,84.5 96.5,87.5C 95.8333,87.5 95.5,87.8333 95.5,88.5C 93.5,88.8333 91.5,89.1667 89.5,89.5C 88.9279,92.5754 87.0946,94.5754 84,95.5C 83.5065,97.1341 83.3398,98.8008 83.5,100.5C 81.5273,101.806 79.8606,103.473 78.5,105.5C 75.6185,106.379 73.2851,108.046 71.5,110.5C 70.5,110.5 69.5,110.5 68.5,110.5C 68.6463,112.942 67.813,113.609 66,112.5C 65.51,113.793 65.3433,115.127 65.5,116.5C 61.8065,116.814 59.4732,115.148 58.5,111.5C 56.9783,110.438 55.3117,109.771 53.5,109.5C 49.9311,107.66 47.2644,104.993 45.5,101.5C 45.631,100.761 45.4643,100.094 45,99.5C 39.5925,94.917 34.4258,90.2504 29.5,85.5C 25.905,82.2455 22.2384,78.9122 18.5,75.5C 17.3702,73.6854 16.7036,71.6854 16.5,69.5C 17.1667,68.1667 18.1667,67.1667 19.5,66.5C 21.0109,65.4975 22.6776,64.8308 24.5,64.5 Z"/></g>
<g><path style="opacity:1" fill="#dbcbf0" d="M 88.5,67.5 C 88.8333,67.5 89.1667,67.5 89.5,67.5C 88.4154,69.5869 86.7488,70.9202 84.5,71.5C 85.5,69.8333 86.8333,68.5 88.5,67.5 Z"/></g>
<g><path style="opacity:1" fill="#9676c5" d="M 24.5,64.5 C 27.1667,66.5 29.5,68.8333 31.5,71.5C 27.5,70.8333 25.1667,68.5 24.5,64.5 Z"/></g>
<g><path style="opacity:1" fill="#9570c8" d="M 81.5,74.5 C 78.5,78.1667 75.1667,81.5 71.5,84.5C 71.1924,82.076 71.5258,79.7427 72.5,77.5C 73.8027,76.2822 74.8027,76.6155 75.5,78.5C 76.5123,75.6619 78.5123,74.3286 81.5,74.5 Z"/></g>
<g><path style="opacity:1" fill="#9371c7" d="M 31.5,71.5 C 38.5,77.8333 45.1667,84.5 51.5,91.5C 49.8828,90.962 48.2161,90.6287 46.5,90.5C 46.321,88.3944 45.321,86.7277 43.5,85.5C 36.9471,82.9521 32.9471,78.2855 31.5,71.5 Z"/></g>
<g><path style="opacity:1" fill="#9573c8" d="M 45.5,74.5 C 47.8458,75.5233 50.1791,76.5233 52.5,77.5C 52.5,78.5 52.5,79.5 52.5,80.5C 53.8333,80.5 55.1667,80.5 56.5,80.5C 56.3433,81.8734 56.51,83.2068 57,84.5C 59.045,85.8869 61.2117,87.0536 63.5,88C 64.635,88.7494 65.635,88.5827 66.5,87.5C 66.2907,86.914 65.9574,86.414 65.5,86C 66.7932,85.51 68.1266,85.3433 69.5,85.5C 68.9202,87.7488 67.5869,89.4154 65.5,90.5C 63.7839,90.3713 62.1172,90.038 60.5,89.5C 55.1667,84.8333 50.1667,79.8333 45.5,74.5 Z"/></g>
<g><path style="opacity:0.957" fill="#9072bd" d="M 29.5,85.5 C 34.4258,90.2504 39.5925,94.917 45,99.5C 45.4643,100.094 45.631,100.761 45.5,101.5C 39.2635,97.0526 33.9301,91.7193 29.5,85.5 Z"/></g>
<g><path style="opacity:1" fill="#a58dcf" d="M 60.5,89.5 C 62.1172,90.038 63.7839,90.3713 65.5,90.5C 63.5434,93.0591 61.8767,92.7258 60.5,89.5 Z"/></g>
<g><path style="opacity:1" fill="#9677c6" d="M 91.5,75.5 C 91.6495,76.552 91.4828,77.552 91,78.5C 86.7427,82.1868 82.9094,86.1868 79.5,90.5C 76.7984,92.22 74.1318,93.8866 71.5,95.5C 77.8333,88.5 84.5,81.8333 91.5,75.5 Z"/></g>
<g><path style="opacity:0.994" fill="#9472c7" d="M 95.5,88.5 C 91.7792,92.8875 87.7792,96.8875 83.5,100.5C 83.3398,98.8008 83.5065,97.1341 84,95.5C 87.0946,94.5754 88.9279,92.5754 89.5,89.5C 91.5,89.1667 93.5,88.8333 95.5,88.5 Z"/></g>
<g><path style="opacity:0.831" fill="#9a7dc3" d="M 78.5,105.5 C 76.1667,107.833 73.8333,110.167 71.5,112.5C 71.5,111.833 71.5,111.167 71.5,110.5C 73.2851,108.046 75.6185,106.379 78.5,105.5 Z"/></g>
<g><path style="opacity:0.208" fill="#f1e6fa" d="M 15.5,69.5 C 15.0246,72.3126 16.0246,74.3126 18.5,75.5C 22.2384,78.9122 25.905,82.2455 29.5,85.5C 33.9301,91.7193 39.2635,97.0526 45.5,101.5C 47.2644,104.993 49.9311,107.66 53.5,109.5C 55.8333,112.167 58.1667,114.833 60.5,117.5C 59.8333,117.5 59.1667,117.5 58.5,117.5C 43.5348,103.035 28.7015,88.3685 14,73.5C 13.5172,72.552 13.3505,71.552 13.5,70.5C 14.1667,70.1667 14.8333,69.8333 15.5,69.5 Z"/></g>
<g><path style="opacity:1" fill="#8d69c3" d="M 53.5,109.5 C 55.3117,109.771 56.9783,110.438 58.5,111.5C 59.4732,115.148 61.8065,116.814 65.5,116.5C 65.3433,115.127 65.51,113.793 66,112.5C 67.813,113.609 68.6463,112.942 68.5,110.5C 69.5,110.5 70.5,110.5 71.5,110.5C 71.5,111.167 71.5,111.833 71.5,112.5C 68.9984,114.17 66.9984,116.336 65.5,119C 63.3258,119.877 61.6591,119.377 60.5,117.5C 58.1667,114.833 55.8333,112.167 53.5,109.5 Z"/></g>
</svg>
